#!OML:ASF H:\MichaelJackson\Top Level 1\Subject 1\Session 1\male.ASF
:FULLY-SPECIFIED
:DEGREES
125
root 4.68911 16.5839 -31.1752 10.2348 1.79789 -10.2929
lowerback -5.19228 5.09655 -1.51149
upperback -2.61969 6.93557 9.01685
thorax -1.16992 3.672 10.6528
lowerneck -4.18288 -4.82087 -5.45271
upperneck -11.5681 -6.50205 -1.76605
head -2.86596 -2.94234 0.423492
rclavicle -2.59911e-014 -3.65764e-014
rhumerus -35.9191 16.4686 -78.9941
rradius 46.7511
rwrist 9.07188
rhand -13.7048 -14.8878
rfingers 7.12502
rthumb 12.4137 -44.4992
lclavicle -2.59911e-014 -3.65764e-014
lhumerus -47.8547 6.42095 94.9551
lradius 42.7772
lwrist 8.61265
lhand -1.51556 9.33082
lfingers 7.12502
lthumb 24.138 37.8322
rfemur -8.48381 -12.3314 28.2297
rtibia 25.7844
rfoot -10.5803 -18.5881
rtoes -40.4548
lfemur -41.1791 7.07335 -9.18709
ltibia 47.6098
lfoot -12.7169 6.78499
ltoes 15.3834
126
root 4.7257 16.5685 -31.0996 9.8778 2.54268 -10.3508
lowerback -5.16339 5.00201 -1.48241
upperback -2.76257 6.82025 9.0266
thorax -1.31141 3.62274 10.6351
lowerneck -4.13 -4.94957 -5.32235
upperneck -11.2636 -6.66477 -1.73177
head -2.77097 -3.03798 0.410013
rclavicle -1.28216e-014 -7.95139e-015
rhumerus -36.3979 15.6919 -78.2758
rradius 47.5669
rwrist 8.29012
rhand -12.7377 -14.2488
rfingers 7.12502
rthumb 13.3461 -43.8014
lclavicle -1.28216e-014 -7.95139e-015
lhumerus -48.394 6.59115 94.5352
lradius 43.1395
lwrist 9.30903
lhand -1.71008 9.58699
lfingers 7.12502
lthumb 23.9514 38.113
rfemur -8.40963 -13.857 27.9819
rtibia 26.8378
rfoot -10.2306 -18.0216
rtoes -42.0274
lfemur -40.7156 6.24454 -9.01514
ltibia 47.6018
lfoot -13.1492 6.70366
ltoes 15.2905
127
root 4.76454 16.5561 -31.0243 9.4881 3.33859 -10.3394
lowerback -5.08555 4.87627 -1.4803
upperback -2.8926 6.66421 9.00022
thorax -1.45697 3.55176 10.5883
lowerneck -4.14921 -5.07681 -5.19383
upperneck -10.9165 -6.81638 -1.66567
head -2.64836 -3.13046 0.4035
rclavicle 1.2101e-014 5.40694e-014
rhumerus -36.8574 14.8429 -77.5162
rradius 48.3498
rwrist 7.38942
rhand -11.8709 -13.7111
rfingers 7.12502
rthumb 14.1814 -43.207
lclavicle 1.2101e-014 5.40694e-014
lhumerus -48.8885 6.7061 94.0969
lradius 43.4916
lwrist 10.0871
lhand -1.87328 9.49065
lfingers 7.12502
lthumb 23.7949 38.0372
rfemur -8.52909 -15.3425 27.6094
rtibia 28.3638
rfoot -9.72312 -17.5393
rtoes -43.854
lfemur -40.1876 5.43211 -8.9629
ltibia 47.5866
lfoot -13.6417 6.5698
ltoes 15.3159
128
root 4.80582 16.5481 -30.9505 9.09091 4.18127 -10.2508
lowerback -4.97527 4.72634 -1.51649
upperback -3.02465 6.47773 8.94041
thorax -1.61696 3.46554 10.5237
lowerneck -4.18108 -5.20505 -5.07818
upperneck -10.5504 -6.96641 -1.5745
head -2.51672 -3.22257 0.405793
rclavicle 8.10048e-015 -1.43125e-014
rhumerus -37.3345 13.9391 -76.7063
rradius 49.1077
rwrist 6.37009
rhand -11.1369 -13.2935
rfingers 7.12502
rthumb 14.8886 -42.7385
lclavicle 8.10048e-015 -1.43125e-014
lhumerus -49.3546 6.76395 93.6551
lradius 43.8199
lwrist 10.8501
lhand -1.92156 8.9729
lfingers 7.12502
lthumb 23.7486 37.5254
rfemur -8.90341 -16.7851 27.1003
rtibia 30.4103
rfoot -9.07349 -17.0472
rtoes -45.7317
lfemur -39.619 4.66388 -9.05032
ltibia 47.5136
lfoot -14.1195 6.35331
ltoes 15.3482
129
root 4.84962 16.5447 -30.8784 8.68816 5.0542 -10.0885
lowerback -4.83572 4.55647 -1.58382
upperback -3.15133 6.26515 8.85186
thorax -1.78255 3.36578 10.4434
lowerneck -4.2313 -5.33294 -4.98082
upperneck -10.1623 -7.11366 -1.46947
head -2.37442 -3.31323 0.413826
rclavicle 4.18939e-014 2.54444e-014
rhumerus -37.8267 13.0185 -75.8447
rradius 49.8408
rwrist 5.23512
rhand -10.5587 -13.0106
rfingers 7.12502
rthumb 15.4456 -42.4135
lclavicle 4.18939e-014 2.54444e-014
lhumerus -49.7802 6.77524 93.2215
lradius 44.1251
lwrist 11.5378
lhand -1.85178 8.13485
lfingers 7.12502
lthumb 23.8155 36.6787
rfemur -9.55571 -18.1566 26.4473
rtibia 32.9957
rfoot -8.28897 -16.3899
rtoes -47.4262
lfemur -39.008 3.96223 -9.27877
ltibia 47.3529
lfoot -14.5449 6.06573
ltoes 15.3101
130
root 4.89616 16.5457 -30.8085 8.29521 5.92618 -9.86195
lowerback -4.6816 4.37664 -1.67117
upperback -3.26931 6.03836 8.74012
thorax -1.94392 3.25809 10.3492
lowerneck -4.29906 -5.45799 -4.9084
upperneck -9.75373 -7.25564 -1.35992
head -2.22243 -3.40066 0.425688
rclavicle -8.55224e-014 -4.92986e-014
rhumerus -38.3226 12.1272 -74.9336
rradius 50.5364
rwrist 4.0023
rhand -10.1776 -12.8394
rfingers 7.12502
rthumb 15.8126 -42.2136
lclavicle -8.55224e-014 -4.92986e-014
lhumerus -50.1628 6.74706 92.8105
lradius 44.4149
lwrist 12.0844
lhand -1.70321 7.08049
lfingers 7.12502
lthumb 23.958 35.6057
rfemur -10.5197 -19.4047 25.6517
rtibia 36.1216
rfoot -7.53437 -15.3615
rtoes -48.6964
lfemur -38.3714 3.35841 -9.63963
ltibia 47.1053
lfoot -14.9085 5.69173
ltoes 15.3219
131
root 4.94521 16.5522 -30.7419 7.92188 6.77806 -9.58358
lowerback -4.51328 4.19085 -1.76215
upperback -3.37731 5.80188 8.61104
thorax -2.09945 3.14445 10.2385
lowerneck -4.38683 -5.57407 -4.87259
upperneck -9.3239 -7.38365 -1.24405
head -2.05991 -3.48022 0.443618
rclavicle 5.57715e-014 6.20208e-014
rhumerus -38.8119 11.2988 -73.9769
rradius 51.1855
rwrist 2.69604
rhand -10.0066 -12.7562
rfingers 7.12502
rthumb 15.9773 -42.1173
lclavicle 5.57715e-014 6.20208e-014
lhumerus -50.4997 6.69971 92.4187
lradius 44.691
lwrist 12.4707
lhand -1.45573 5.86867
lfingers 7.12502
lthumb 24.1953 34.3624
rfemur -11.8091 -20.4703 24.7275
rtibia 39.7486
rfoot -6.95162 -13.7519
rtoes -49.5099
lfemur -37.7238 2.92223 -10.1304
ltibia 46.7817
lfoot -15.2027 5.19092
ltoes 15.3612
132
root 4.99488 16.5605 -30.6797 7.5592 7.64671 -9.26789
lowerback -4.31897 3.98917 -1.86549
upperback -3.48157 5.54377 8.47862
thorax -2.26282 3.02013 10.1311
lowerneck -4.46213 -5.68233 -4.8625
upperneck -8.88313 -7.50344 -1.14389
head -1.89709 -3.5543 0.460366
rclavicle -1.79155e-014 2.38542e-014
rhumerus -39.3069 10.5535 -72.971
rradius 51.793
rwrist 1.35005
rhand -10.0494 -12.7603
rfingers 7.12502
rthumb 15.9361 -42.1247
lclavicle -1.79155e-014 2.38542e-014
lhumerus -50.806 6.62208 92.0628
lradius 44.9786
lwrist 12.7111
lhand -1.11116 4.64114
lfingers 7.12502
lthumb 24.5257 33.0905
rfemur -13.4161 -21.3273 23.7053
rtibia 43.8176
rfoot -6.52386 -11.3862
rtoes -49.9437
lfemur -37.0742 2.57447 -10.7008
ltibia 46.4085
lfoot -15.4408 4.59284
ltoes 15.4611
133
root 5.04431 16.5702 -30.6227 7.21139 8.51204 -8.92682
lowerback -4.0896 3.77301 -1.96433
upperback -3.56441 5.26409 8.34292
thorax -2.41883 2.88364 10.0173
lowerneck -4.59791 -5.77735 -4.87927
upperneck -8.41381 -7.60178 -1.05656
head -1.71604 -3.61729 0.474159
rclavicle -8.46077e-014 -5.725e-014
rhumerus -39.754 9.90188 -71.9285
rradius 52.3419
rwrist 0.0309666
rhand -10.3007 -12.791
rfingers 7.12502
rthumb 15.6941 -42.1746
lclavicle -8.46077e-014 -5.725e-014
lhumerus -51.0463 6.51518 91.7434
lradius 45.3037
lwrist 12.8411
lhand -0.802339 3.60543
lfingers 7.12502
lthumb 24.8217 32.0144
rfemur -15.3214 -21.919 22.5994
rtibia 48.2471
rfoot -6.1514 -8.14096
rtoes -49.9971
lfemur -36.4264 2.3295 -11.3308
ltibia 45.9952
lfoot -15.6375 3.89126
ltoes 15.5969
134
root 5.09203 16.5818 -30.5718 6.87376 9.38123 -8.56858
lowerback -3.81838 3.54561 -2.06874
upperback -3.63677 4.96862 8.20929
thorax -2.5857 2.73935 9.90887
lowerneck -4.72117 -5.8617 -4.91119
upperneck -7.95488 -7.68868 -0.98967
head -1.54245 -3.67315 0.484317
rclavicle -1.45858e-014 -4.77083e-015
rhumerus -40.1773 9.33966 -70.8496
rradius 52.8274
rwrist -1.18313
rhand -10.7681 -12.8396
rfingers 7.12502
rthumb 15.2439 -42.2579
lclavicle -1.45858e-014 -4.77083e-015
lhumerus -51.2491 6.33692 91.4835
lradius 45.6842
lwrist 12.9364
lhand -0.557912 2.76463
lfingers 7.12502
lthumb 25.0559 31.1411
rfemur -17.4933 -22.2187 21.4322
rtibia 52.9506
rfoot -5.37765 -4.04427
rtoes -49.2413
lfemur -35.7849 2.17419 -11.9951
ltibia 45.5453
lfoot -15.7695 3.10869
ltoes 15.8662
135
root 5.13664 16.5944 -30.527 6.54701 10.2776 -8.16953
lowerback -3.50738 3.30114 -2.21628
upperback -3.69713 4.64973 8.07178
thorax -2.76197 2.58438 9.82215
lowerneck -4.80626 -5.93833 -4.94609
upperneck -7.53593 -7.77068 -0.946185
head -1.39021 -3.72475 0.489736
rclavicle 1.72446e-014 2.38542e-014
rhumerus -40.5682 8.84023 -69.733
rradius 53.2424
rwrist -2.24249
rhand -11.3515 -12.8727
rfingers 7.12502
rthumb 14.6819 -42.3329
lclavicle 1.72446e-014 2.38542e-014
lhumerus -51.4082 6.05643 91.2945
lradius 46.1302
lwrist 13.0701
lhand -0.347453 2.15376
lfingers 7.12502
lthumb 25.2575 30.5019
rfemur -19.8668 -22.2392 20.1754
rtibia 57.8404
rfoot -3.60984 0.516153
rtoes -46.9676
lfemur -35.1314 2.06832 -12.7038
ltibia 45.0454
lfoot -15.8489 2.22716
ltoes 16.2864
136
root 5.17701 16.6096 -30.4887 6.22401 11.1909 -7.73991
lowerback -3.13751 3.04357 -2.39537
upperback -3.74239 4.31176 7.92641
thorax -2.9541 2.42064 9.74562
lowerneck -4.84402 -6.00436 -4.98516
upperneck -7.17591 -7.84381 -0.907794
head -1.26562 -3.77001 0.497169
rclavicle 8.56265e-014 1.43125e-014
rhumerus -40.9329 8.38204 -68.5919
rradius 53.6033
rwrist -3.10398
rhand -12.1566 -12.854
rfingers 7.12502
rthumb 13.9061 -42.369
lclavicle 8.56265e-014 1.43125e-014
lhumerus -51.5119 5.65655 91.1664
lradius 46.6445
lwrist 13.2838
lhand -0.201042 1.81028
lfingers 7.12502
lthumb 25.3978 30.1386
rfemur -22.3897 -21.9702 18.8423
rtibia 62.841
rfoot -0.550607 4.90889
rtoes -42.269
lfemur -34.4612 2.06013 -13.4526
ltibia 44.4865
lfoot -15.8709 1.23202
ltoes 16.7278
137
root 5.21172 16.6272 -30.4558 5.88666 12.1182 -7.27461
lowerback -2.68981 2.77132 -2.6268
upperback -3.75562 3.95103 7.77199
thorax -3.1555 2.24625 9.69078
lowerneck -4.87787 -6.05859 -5.0214
upperneck -6.87674 -7.90341 -0.869784
head -1.16181 -3.80698 0.505584
rclavicle -7.11649e-014 -5.08889e-014
rhumerus -41.2228 7.94564 -67.4378
rradius 53.8865
rwrist -3.72545
rhand -12.9902 -12.8547
rfingers 7.12502
rthumb 13.1027 -42.4231
lclavicle -7.11649e-014 -5.08889e-014
lhumerus -51.5275 5.12997 91.0984
lradius 47.2029
lwrist 13.6245
lhand -0.136312 1.64104
lfingers 7.12502
lthumb 25.4598 29.9605
rfemur -24.9843 -21.4282 17.4209
rtibia 67.8987
rfoot 3.63389 8.68167
rtoes -34.827
lfemur -33.7465 2.14109 -14.2382
ltibia 43.8663
lfoot -15.8396 0.142447
ltoes 17.144
